<svg width="95" height="95" viewBox="0 0 95 95" fill="none" xmlns="http://www.w3.org/2000/svg">
<g id="Group 19">
<path id="Ellipse 3" d="M56.3266 27.7903C56.3325 38.4248 47.4201 47.4283 47.4201 47.4283C47.4201 47.4283 38.498 39.1898 38.4921 28.5553C38.4862 17.9208 47.3987 8.91733 47.3987 8.91733C47.3987 8.91733 56.3207 17.1558 56.3266 27.7903Z" fill="#4F7942"/>
<path id="Ellipse 4" d="M67.0583 38.522C56.4238 38.5161 47.4204 47.4286 47.4204 47.4286C47.4204 47.4286 55.6589 56.3506 66.2934 56.3565C76.9279 56.3624 85.9313 47.4499 85.9313 47.4499C85.9313 47.4499 77.6928 38.5279 67.0583 38.522Z" fill="#4F7942"/>
<path id="Ellipse 5" d="M27.7893 56.3276C38.4238 56.3335 47.4273 47.421 47.4273 47.421C47.4273 47.421 39.1888 38.499 28.5543 38.4931C17.9198 38.4872 8.91635 47.3997 8.91635 47.3997C8.91635 47.3997 17.1548 56.3217 27.7893 56.3276Z" fill="#4F7942"/>
<path id="Ellipse 6" d="M38.521 67.0583C38.5151 56.4238 47.4276 47.4204 47.4276 47.4204C47.4276 47.4204 56.3496 55.6589 56.3555 66.2934C56.3614 76.9279 47.4489 85.9313 47.4489 85.9313C47.4489 85.9313 38.5269 77.6928 38.521 67.0583Z" fill="#4F7942"/>
</g>
</svg>
