<svg width="100" height="100" viewBox="0 0 100 100" fill="none" xmlns="http://www.w3.org/2000/svg">
<g id="Instagram">
<path id="Vector" d="M86.8128 28.0833C85.9795 28.625 84.792 29.125 84.292 29.6875C84.1045 29.875 84.0003 30.0833 84.042 30.2917V32.4375L83.417 34.5417L82.792 36.625L82.1045 38.9167L80.6878 43.6042L79.3128 48.2292L78.2712 51.7083C78.2712 52.25 78.2503 52.7917 78.2087 53.3125C78.0628 55.3125 77.6462 57.2292 76.9795 59.0208C76.5837 60.125 76.1045 61.1875 75.5212 62.1875C75.3128 62.5833 75.0628 62.9792 74.8128 63.3542C73.9795 64.6667 72.9795 65.875 71.8753 66.9375C71.0212 67.7917 70.0837 68.5833 69.0628 69.25C69.0628 69.25 69.0628 69.25 69.042 69.25C68.8753 69.3958 68.6878 69.5208 68.4795 69.625C67.8337 70.0625 67.1462 70.4375 66.4378 70.7708C65.9587 71.0208 65.4795 71.2292 64.9795 71.4167C64.8753 71.4792 64.7503 71.5208 64.6462 71.5625C63.4587 72.125 62.0837 72.5 60.7087 72.6875C60.6253 72.7083 60.5628 72.7083 60.4795 72.7292C59.6462 72.875 58.8337 73 58.0003 73.0625C57.6253 73.1042 57.2295 73.125 56.8545 73.125L55.3753 73.0417L48.2503 72.6667C48.2503 72.6458 48.2295 72.6667 48.2295 72.6667L44.6462 72.4792C44.3753 72.4792 44.0837 72.4792 43.8128 72.4583C42.6878 72.4167 41.6045 72.2917 40.5212 72.0625C40.5003 72.0625 40.5003 72.0625 40.5003 72.0625C38.5212 71.6875 36.6253 71.0208 34.8545 70.125C33.8753 69.625 32.917 69.0625 32.0212 68.4167C31.6462 68.1458 31.292 67.8542 30.9378 67.5417C29.9378 66.7083 29.042 65.8125 28.2087 64.8958C28.0837 64.7708 27.9795 64.6458 27.8753 64.5208C27.7503 64.3958 27.6253 64.25 27.5212 64.125C26.7295 63.125 26.0628 62.1042 25.5212 61.0208C25.0212 60.0625 24.6253 59.0417 24.3128 57.9167C24.1878 57.5208 24.0837 57.1458 24.0003 56.7292C23.9795 56.7083 23.9587 56.6667 23.9587 56.625C23.7503 55.7708 23.5628 54.875 23.4587 53.9792C23.3337 53.2917 23.2712 52.6042 23.2712 51.8958C23.2295 51.625 23.2295 51.3333 23.2295 51.0625L27.2087 44.9167L31.1045 38.9167L32.8753 36.1875L34.4795 33.7292L35.0212 32.875V30.7292C35.0628 30.25 35.0837 29.75 35.0628 29.2917C35.042 27.8333 34.7503 26.4167 34.2712 25.0625C33.8128 23.625 33.167 22.2708 32.5003 21.0208C31.7087 19.5833 30.8753 18.2917 30.1878 17.125C29.167 15.4167 28.4587 14.0208 28.6462 13.0417C30.1462 12.6875 31.7295 12.5 33.3337 12.5H66.667C75.3753 12.5 82.8753 17.9167 85.9795 25.5417C86.3128 26.3542 86.6045 27.2083 86.8128 28.0833Z" fill="#304FFE"/>
<path id="Vector_2" d="M87.4997 33.3333V33.8958L84.6247 35.5625L82.7913 36.625L80.7705 37.7917L76.7288 40.1458L72.7705 42.4375L68.7288 44.7708L67.1247 45.7083C67.1247 46.7083 66.8747 47.625 66.4163 48.4583C65.7705 49.6667 64.6872 50.6667 63.3122 51.5208C61.9163 52.375 60.208 53.0625 58.2913 53.5625C58.2913 53.5625 58.2913 53.5417 58.2705 53.5625C50.8538 55.4792 40.7288 54.6042 35.8122 50.9375C34.4372 49.9167 33.4788 48.6667 33.0622 47.2292C32.9372 46.75 32.8747 46.2292 32.8747 45.7083V30.7292C32.8955 30.4167 32.6872 30.1042 32.3122 29.7917C31.1872 28.8958 28.5413 28.0417 25.583 27.1875C23.2705 26.5417 20.7913 25.8958 18.708 25.2708C17.0622 24.7708 15.6663 24.2708 14.833 23.7917C15.208 23.0625 15.6455 22.3333 16.1038 21.6458C19.0205 17.375 23.4788 14.2292 28.6455 13.0417C30.1455 12.6875 31.7288 12.5 33.333 12.5H55.833C67.0205 14.4583 77.333 19.0208 85.9788 25.5417C86.3122 26.3542 86.6038 27.2083 86.8122 28.0833C87.1872 29.4583 87.4163 30.875 87.4788 32.3542C87.4997 32.6667 87.4997 33 87.4997 33.3333Z" fill="#4928F4"/>
<path id="Vector_3" d="M87.5003 33.3333V42.5208L87.042 43.9375L85.4795 48.7917L83.8545 53.7917L83.0003 56.4583L82.2087 58.9375L81.4378 61.2917L80.6878 63.625L80.292 64.8542L79.7712 66.4792C79.7712 68.0625 79.7295 69.4583 79.6253 70.6458C79.6045 70.7708 79.5837 70.8958 79.5837 71.0208C79.4587 72.125 79.292 73.0625 79.0212 73.8542C79.0003 73.9792 78.9587 74.1042 78.917 74.2083C78.3753 75.7083 77.5628 76.6667 76.3545 77.2917C76.0628 77.4583 75.7295 77.5833 75.3753 77.7083C74.2712 78.0833 72.8753 78.2708 71.167 78.375C69.917 78.4583 68.4795 78.4792 66.8545 78.4792H65.417L62.9378 78.375L62.5003 78.3542L57.9795 78.1667L53.3962 77.9792L38.292 77.3542L34.3753 77.1875H33.8337C32.2087 77.1667 30.8128 77.0625 29.6045 76.8958C27.8545 76.625 26.5003 76.1667 25.4795 75.4792C24.0212 74.5417 23.167 73.1667 22.667 71.25C22.542 70.7917 22.4378 70.3125 22.3753 69.7917C22.167 68.5833 22.0628 67.1875 22.0003 65.625C22.0003 65.3125 22.0003 65 21.9795 64.6667C21.9587 64.6458 21.9795 64.6458 21.9795 64.6458V63.4375C21.9587 62.8333 21.9587 62.2083 21.9587 61.5625L22.0628 58.2083L22.1253 55.8125L22.2087 53.0208V52.625L22.3545 47.5L22.5003 42.375L22.6462 37.5625L22.7712 32.8333L22.8128 31.5833C22.8128 30.9375 20.6253 30.5625 18.1878 30.25C16.2503 30 14.1253 29.7708 12.8545 29.4792C12.9587 29 13.0628 28.5208 13.1878 28.0625C13.5628 26.5625 14.1253 25.1458 14.8337 23.7917C15.2087 23.0625 15.6462 22.3333 16.1045 21.6458C20.6045 19.6667 25.292 18.125 30.1878 17.125C34.4795 16.2292 38.9587 15.75 43.5837 15.75C58.917 15.75 73.0837 20.9375 84.292 29.6875C85.3753 30.5208 86.4378 31.4167 87.4795 32.3542C87.5003 32.6667 87.5003 33 87.5003 33.3333Z" fill="#6200EA"/>
<path id="Vector_4" d="M87.5 38.2715V47.7298L86.3542 49.9381L84.1667 54.209L83 56.459L81.9375 58.5215L81.4792 59.4173C81.4792 60.0631 81.4792 60.6882 81.4375 61.2923C81.4375 62.1882 81.3958 63.0423 81.3333 63.834C81.25 64.7715 81.125 65.6257 81 66.4173C80.6875 68.0632 80.25 69.4798 79.625 70.6465C79.5417 70.7923 79.4583 70.9381 79.375 71.0631C79.1458 71.4381 78.875 71.7923 78.5833 72.1256C78.2083 72.584 77.7917 72.9798 77.3125 73.3131C76.6042 73.8548 75.7708 74.2923 74.8125 74.6256C73.625 75.0631 72.25 75.3548 70.625 75.5215C69.5625 75.6256 68.3958 75.6882 67.125 75.6882L66.25 75.7298L61.9167 75.9798H61.8958L57.2917 76.2506L52.6042 76.5215L46.1458 76.8965L38.2917 77.3548L37.1458 77.4173C36.0833 77.4173 35.0833 77.3548 34.125 77.2298C34.0208 77.209 33.9375 77.1881 33.8333 77.1881C32.4167 76.959 31.125 76.584 29.9583 76.0631C28.5417 75.4381 27.3125 74.6048 26.2708 73.6048C25.3542 72.709 24.5625 71.6881 23.9167 70.5423C23.7708 70.2715 23.625 70.0215 23.5 69.7298C22.875 68.5007 22.375 67.1256 22 65.6256C21.9375 65.3756 21.875 65.1048 21.8333 64.834C21.7083 64.3548 21.6042 63.8548 21.5417 63.334C21.3125 62.0007 21.1875 60.584 21.125 59.1048V59.084C21.1042 58.4798 21.0833 57.8965 21.0833 57.2715L20.0625 54.834L19.9167 54.459L19.7917 54.1465L18.2292 50.4173L17.9792 49.8132L16.4792 46.209L14.8125 42.1882C14.8125 42.1882 14.8125 42.1882 14.7917 42.1882L13.1042 38.1256L12.5 36.6465V33.334C12.5 32.0215 12.625 30.7298 12.8542 29.4798C12.9583 29.0007 13.0625 28.5215 13.1875 28.0632C14.9583 27.0423 16.8125 26.1048 18.7083 25.2715C23.0417 23.334 27.6875 21.8965 32.5 21.0215C36.0833 20.3757 39.8125 20.0215 43.5833 20.0215C58.8125 20.0215 72.625 25.5423 83.4167 34.5423C83.8333 34.8757 84.2292 35.209 84.625 35.5632C85.6042 36.4173 86.5625 37.3132 87.5 38.2715Z" fill="#673AB7"/>
<path id="Vector_5" d="M87.5 44.4792V55.1875L86.3125 57.6667L84.0625 62.3542L84.0417 62.4167C84.0417 63.3125 84 64.125 83.9375 64.8542C83.7292 67.25 83.1458 68.7708 82.1875 69.7083C81.5 70.4167 80.6458 70.8125 79.5833 71.0208C79.5208 71.0417 79.4375 71.0417 79.375 71.0625C79.0417 71.125 78.6875 71.1667 78.3125 71.1667C77.0208 71.2917 75.5 71.2083 73.75 71.0833C73.5625 71.0833 73.3542 71.0625 73.1458 71.0417C71.875 70.9583 70.5208 70.875 69.0208 70.8125C68.2083 70.7917 67.3542 70.7708 66.4792 70.7708H66.4375L64.3333 70.9375H64.3125L59.5833 71.2708L54.1875 71.6875L53.3958 71.75L47.0833 72.2083L43.8125 72.4583L40.5833 72.6875C40.0208 72.6875 39.4792 72.6875 38.9375 72.6667C38.9375 72.6667 38.9167 72.6458 38.9167 72.6667C36.5625 72.625 34.4583 72.4792 32.5833 72.125C30.8542 71.8333 29.3333 71.375 28.0417 70.6875C26.7083 70.0417 25.6042 69.125 24.7083 67.9583C23.8542 66.8125 23.2292 65.375 22.8333 63.6458C22.8333 63.625 22.8333 63.625 22.8333 63.625C22.5417 62.2292 22.375 60.6042 22.375 58.7708L22.0625 58.2083L20.2083 54.8958L19.9375 54.4375L19.7917 54.1458L17.8542 50.7083L16.8958 48.9792L15.6875 46.8333L13.6042 43.1042L12.5 41.1458V33.4792C14.3333 32.2708 16.2292 31.2083 18.1875 30.25C20.5625 29.0417 23.0208 28.0208 25.5833 27.1875C28.375 26.2708 31.2917 25.5417 34.2708 25.0625C37.2917 24.5625 40.3958 24.3125 43.5833 24.3125C57.75 24.3125 70.75 29.375 80.7708 37.7917C81.2292 38.1458 81.6667 38.5417 82.1042 38.9167C83.8542 40.4792 85.5208 42.1667 87.0417 43.9375C87.2083 44.125 87.375 44.2917 87.5 44.4792Z" fill="#8E24AA"/>
<path id="Vector_6" d="M87.5 51.4798V66.5423C87 66.2507 86.3125 65.8965 85.4583 65.5215C85 65.2923 84.4792 65.0631 83.9375 64.8548C83.1458 64.5006 82.2917 64.1673 81.3333 63.834C81.125 63.7506 80.9167 63.6881 80.6875 63.6256C80.3125 63.4798 79.9167 63.3548 79.5208 63.2298C78.2917 62.8548 76.9375 62.5007 75.5208 62.1882C74.9792 62.084 74.4167 61.9798 73.8542 61.8965C72.0417 61.584 70.1042 61.3965 68.0833 61.3756C67.9167 61.3548 67.7292 61.3548 67.5625 61.3548L62.2083 61.3965L54.9167 61.4381H54.8958L39.2917 61.5631C34.3333 61.5631 31.2917 62.7507 29.4583 63.2298C29.4583 63.2298 29.4375 63.2298 29.4375 63.2506C27.5 63.7506 26.8958 63.4381 26.7292 60.0423C26.6875 59.1048 26.6667 57.8965 26.6667 56.4173L25.5 55.5215L23.4583 53.9798L22.2083 53.0215L21.9583 52.834L18.5 50.209L17.9792 49.8131L16.8958 48.9798L14.8958 47.4798L12.5 45.6465V38.5632C12.7083 38.3965 12.8958 38.2506 13.1042 38.1256C16.125 36.0423 19.3542 34.2715 22.7708 32.834C25.8125 31.5423 29.0208 30.5215 32.3125 29.7923C33.2083 29.6048 34.125 29.4173 35.0625 29.2923C37.8333 28.8132 40.6875 28.584 43.5833 28.584C56.1042 28.584 67.6042 32.9382 76.7292 40.1465C78.1042 41.2298 79.4375 42.3757 80.6875 43.6048C82.3958 45.2298 84 46.959 85.4792 48.7923C85.7708 49.1673 86.0625 49.5423 86.3542 49.9381C86.75 50.4381 87.125 50.959 87.5 51.4798Z" fill="#C2185B"/>
<path id="Vector_7" d="M87.5 59.8333V66.6667C87.5 68.0208 87.375 69.3542 87.125 70.6458C86.75 72.5625 86.1042 74.3958 85.2292 76.1042C84.7708 76.2083 84.25 76.2083 83.6667 76.125C82.3542 75.8958 80.8125 75.2083 79.1458 74.3125C79.0625 74.2917 78.9792 74.25 78.9167 74.2083C78.3958 73.9375 77.8542 73.6458 77.3125 73.3125C76.2083 72.7083 75.0417 72.0417 73.875 71.4167C73.625 71.2917 73.375 71.1667 73.1458 71.0417C71.8125 70.3542 70.4375 69.7292 69.0625 69.25C69.0625 69.25 69.0625 69.25 69.0417 69.25C68.75 69.1458 68.4375 69.0417 68.125 68.9583C66.9375 68.625 65.7292 68.4167 64.5625 68.4167L62.2708 67.75L52.125 64.8125C52.125 64.8125 52.125 64.8125 52.1042 64.8125L45.875 63H45.8542L43.1458 62.2083C35.3125 62.2083 30.5 65.5417 28.1667 64.2708C27.25 63.7917 26.7083 62.5833 26.5208 60.2083C26.4583 59.5417 26.4375 58.7917 26.4375 57.9167L24 56.7292L23.8958 56.6875H23.875L22.125 55.8125L20.2083 54.8958L20.0625 54.8333L19.7083 54.6458L15.625 52.6667L12.5 51.1458V44C12.8542 43.6875 13.2292 43.3958 13.6042 43.1042C14 42.7917 14.3958 42.5 14.7917 42.1875C14.8125 42.1875 14.8125 42.1875 14.8125 42.1875C17.2708 40.4167 19.875 38.8542 22.6458 37.5625C25.875 36.0208 29.3125 34.8333 32.875 34.0625C33.3958 33.9375 33.9375 33.8125 34.4792 33.7292C37.4375 33.1667 40.4792 32.875 43.5833 32.875C54.5625 32.875 64.6458 36.4375 72.7708 42.4375C75.125 44.1875 77.3125 46.125 79.3125 48.2292C80.9583 49.9583 82.4792 51.8333 83.8542 53.7917C83.9583 53.9375 84.0625 54.0833 84.1667 54.2083C84.9375 55.3333 85.6458 56.4792 86.3125 57.6667C86.75 58.375 87.125 59.1042 87.5 59.8333Z" fill="#D81B60"/>
<path id="Vector_8" d="M87.125 70.6465C86.75 72.5631 86.1042 74.3965 85.2292 76.1048C84.8333 76.8756 84.3958 77.6048 83.9167 78.3131C83.625 78.7506 83.3125 79.1673 83 79.5631C82.25 79.2715 81.1458 78.8548 79.7917 78.3965C79.7917 78.3965 79.7917 78.3965 79.7917 78.3756C78.7708 78.0215 77.6042 77.6465 76.3542 77.2923C76 77.1881 75.6458 77.084 75.2708 76.9798C73.7917 76.584 72.25 76.2298 70.75 76.0215C69.5 75.8132 68.2708 75.6882 67.125 75.6882L66.1667 75.4173H66.1458L61.1042 73.959L58 73.0631L54.5417 72.0632H54.5208L53.3958 71.7506L39.7917 67.834L35.875 66.709L32.9583 66.0215L28.2083 64.8965L27.625 64.7506C27.625 64.7506 27.625 64.7506 27.6042 64.7506L22.8333 63.6465C22.8333 63.6256 22.8333 63.6257 22.8333 63.6257L21.9792 63.4382L21.5417 63.334L18.0625 62.5215L17.6667 62.4173L14.7083 59.9798L12.5 58.1256V49.6257C13.2708 48.8757 14.0625 48.1673 14.8958 47.4798C15.1458 47.2507 15.4167 47.0423 15.6875 46.834C15.9375 46.6256 16.2083 46.4173 16.4792 46.209C18.375 44.7715 20.375 43.4798 22.5 42.3757C25.2083 40.9173 28.0833 39.7507 31.1042 38.9173C31.6875 38.7298 32.2708 38.5632 32.875 38.4382C36.2917 37.584 39.875 37.1465 43.5833 37.1465C52.8958 37.1465 61.5625 39.959 68.7292 44.7715C72.2917 47.1673 75.5 50.0423 78.2083 53.3132C79.5833 54.959 80.8333 56.6882 81.9375 58.5215C82.0417 58.6673 82.125 58.7923 82.2083 58.9382C82.875 60.0423 83.5 61.1882 84.0625 62.3548C84.5833 63.3965 85.0417 64.4382 85.4583 65.5215C86.125 67.1882 86.6667 68.8965 87.125 70.6465Z" fill="#F50057"/>
<path id="Vector_9" d="M83.9167 78.3125C83.625 78.75 83.3125 79.1667 83 79.5625C82.0833 80.7083 81.0833 81.75 79.9583 82.6667C78.9792 83.4792 77.9375 84.2083 76.8333 84.8333C76.4167 84.7292 76 84.6042 75.5625 84.4375C74.1875 83.9583 72.75 83.1667 71.4167 82.3333C69.4167 81.0625 67.6875 79.6875 66.9167 79.0625C66.625 78.8125 66.4792 78.6875 66.4792 78.6875L62.9375 78.375L62.5 78.3333L57.9167 77.9375L53.1667 77.5208L46.1458 76.8958L35.0208 75.9167L34.9792 75.8958L31.0625 74L27.1042 72.0833L23.9167 70.5417L23.2292 70.2083L22.375 69.7917L19.4167 68.3542L15.4792 66.4583L14.25 65.8542L12.5 65.3125V56C13.4792 54.8333 14.5208 53.7292 15.625 52.6667C16.3333 52 17.0833 51.3333 17.8542 50.7083C17.9792 50.6042 18.1042 50.5 18.2292 50.4167C18.3125 50.3125 18.4167 50.25 18.5 50.2083C19.7292 49.2083 21.0208 48.3125 22.3542 47.5C23.8958 46.5208 25.5208 45.6458 27.2083 44.9167C29.0208 44.1042 30.9167 43.4167 32.875 42.8958C36.2708 41.9375 39.875 41.4375 43.5833 41.4375C52.0833 41.4375 59.9375 44.0208 66.4167 48.4583C70.5625 51.2917 74.1458 54.875 76.9792 59.0208C77.9167 60.3542 78.75 61.7708 79.5208 63.2292C79.7917 63.7708 80.0625 64.3125 80.2917 64.8542C80.5417 65.375 80.7708 65.8958 81 66.4167C81.4375 67.5 81.8333 68.5833 82.1875 69.7083C82.8542 71.7917 83.3542 73.9167 83.6667 76.125C83.7708 76.8542 83.8542 77.5833 83.9167 78.3125Z" fill="#FF1744"/>
<path id="Vector_10" d="M79.9792 82.1256C79.9792 82.2923 79.9792 82.4798 79.9583 82.6673C78.9792 83.4798 77.9375 84.209 76.8333 84.834C76.375 85.084 75.9167 85.334 75.4375 85.5423C74.9583 85.7715 74.4792 85.9798 73.9792 86.1673C73.2708 85.7923 72.3125 85.334 71.2917 84.8965C69.8542 84.2506 68.2917 83.6673 67.0833 83.4798C66.7917 83.4173 66.5208 83.3965 66.2708 83.3965L62.8542 82.959H62.8125L58.5625 82.3965L54.2708 81.834L52.2708 81.584L36.5208 79.5423C35.5 79.5423 34.4167 79.4798 33.2917 79.334C31.9167 79.209 30.4792 79.0006 29.0417 78.709C27.625 78.459 26.1875 78.1257 24.8125 77.7715C23.375 77.4382 21.9583 77.0423 20.6458 76.6673C19.125 76.209 17.7083 75.7715 16.5208 75.3756C15.5417 75.0631 14.7083 74.7715 14.0625 74.5423C13.6875 73.6465 13.375 72.709 13.1458 71.7506C12.7083 70.1256 12.5 68.4173 12.5 66.6673V63.1881C13.1667 62.084 13.8958 61.0007 14.7083 59.9798C16.1875 58.0215 17.875 56.2298 19.7083 54.6465C19.7708 54.5631 19.8542 54.5006 19.9167 54.459L19.9375 54.4381C20.5833 53.8548 21.25 53.334 21.9583 52.834C22.0417 52.7507 22.125 52.6882 22.2083 52.6257C22.5417 52.3757 22.8958 52.1256 23.2708 51.8965C26.25 49.8756 29.5417 48.2923 33.0625 47.2298C36.3958 46.2298 39.9167 45.709 43.5833 45.709C50.8542 45.709 57.6458 47.8548 63.3125 51.5215C67.5 54.209 71.1042 57.7506 73.8542 61.8965C74.1875 62.3756 74.5 62.8548 74.8125 63.3548C76.25 65.7923 77.4375 68.4173 78.3125 71.1673C78.4167 71.4798 78.5 71.7923 78.5833 72.1256C78.75 72.6881 78.8958 73.2715 79.0208 73.8548C79.0625 74.0007 79.1042 74.1465 79.1458 74.3131C79.4375 75.6256 79.6458 77.0006 79.7917 78.3756C79.7917 78.3965 79.7917 78.3965 79.7917 78.3965C79.9167 79.6257 79.9792 80.8756 79.9792 82.1256Z" fill="#FF5722"/>
<path id="Vector_11" d="M75.6872 82.125C75.6872 82.8542 75.6455 83.6458 75.5622 84.4375C75.5205 84.8125 75.4788 85.1875 75.4372 85.5417C74.958 85.7708 74.4788 85.9792 73.9788 86.1667C73.0413 86.5208 72.083 86.8125 71.1038 87.0208C70.4372 87.1667 69.7497 87.2917 69.0622 87.3542H69.0413C68.3955 86.9583 67.6455 86.4792 66.8747 85.9375C65.4788 84.9583 64.0205 83.8542 62.8538 82.9583C62.833 82.9375 62.833 82.9375 62.8122 82.9167C61.583 81.9792 60.708 81.2708 60.708 81.2708L58.4997 81.3542L54.2497 81.5L52.2705 81.5833L44.3122 81.875L37.583 82.125C37.1455 82.1458 36.6247 82.1458 35.9788 82.125H35.958C35.083 82.1042 34.0413 82.0417 32.8955 81.9375C31.5622 81.8333 30.1038 81.7083 28.6247 81.5625C27.1872 81.3958 25.7288 81.2292 24.333 81.0625C22.7913 80.8958 21.333 80.7083 20.083 80.5417C19.1038 80.4167 18.2497 80.3125 17.5622 80.2292C16.9788 79.5625 16.458 78.875 15.958 78.125C15.208 77 14.5622 75.8125 14.0622 74.5417C13.6872 73.6458 13.3747 72.7083 13.1455 71.75C13.7497 69.8958 14.5413 68.1458 15.4788 66.4583C16.2288 65.0833 17.1038 63.7708 18.0622 62.5208C18.9997 61.2917 20.0205 60.1458 21.1247 59.1042V59.0833C21.4372 58.7708 21.7497 58.4792 22.0622 58.2083C22.6455 57.6667 23.2497 57.1667 23.8747 56.6875H23.8955C23.9163 56.6458 23.9372 56.6458 23.958 56.625C24.458 56.2292 24.9788 55.875 25.4997 55.5208C28.583 53.4167 32.0622 51.8542 35.8122 50.9375C38.2913 50.3333 40.8955 50 43.583 50C48.8747 50 53.8747 51.2708 58.2705 53.5625H58.2913C62.0622 55.5 65.3955 58.1667 68.083 61.375C69.5622 63.0833 70.833 64.9583 71.8747 66.9375C72.6038 68.2708 73.2288 69.6667 73.7497 71.0833C73.7913 71.2083 73.833 71.3125 73.8747 71.4167C74.2288 72.4583 74.5413 73.5417 74.8122 74.625C74.9997 75.3958 75.1455 76.1875 75.2705 76.9792C75.3122 77.2292 75.3538 77.4583 75.3747 77.7083C75.583 79.1458 75.6872 80.625 75.6872 82.125Z" fill="#FF6F00"/>
<path id="Vector_12" d="M71.4163 82.1243V82.3327C71.4163 83.041 71.3538 83.9368 71.2913 84.8952C71.2288 85.6035 71.1663 86.3327 71.1038 87.0202C70.4372 87.166 69.7497 87.291 69.0622 87.3535H69.0413C68.2497 87.4577 67.4788 87.4993 66.6663 87.4993H63.0205L62.2288 87.2702L58.1247 86.0202L53.958 84.7702L44.3122 81.8743L40.1455 80.6244C40.1455 80.6244 38.4163 81.3118 35.9788 82.1243H35.958C35.0205 82.4368 33.9997 82.7702 32.9163 83.1035C31.5622 83.4993 30.1247 83.8952 28.708 84.2077C27.2497 84.541 25.8122 84.791 24.5205 84.8952C24.1247 84.9368 23.7288 84.9577 23.3747 84.9577C22.208 84.3118 21.083 83.541 20.0622 82.6868C19.1663 81.9368 18.333 81.1243 17.5622 80.2285C16.9788 79.5618 16.458 78.8743 15.958 78.1243C16.1038 77.1868 16.2705 76.2702 16.5205 75.3743C17.1455 72.8952 18.1247 70.5202 19.4163 68.3535C20.1247 67.1244 20.9163 65.9369 21.833 64.8327C21.8538 64.7702 21.9163 64.7077 21.9788 64.666C21.958 64.6452 21.9788 64.6452 21.9788 64.6452C22.2497 64.291 22.5413 63.9577 22.833 63.6452C22.833 63.6243 22.833 63.6244 22.833 63.6244C23.6872 62.7077 24.5622 61.8327 25.5205 61.0202C25.8538 60.7494 26.1663 60.4785 26.5205 60.2077C26.583 60.1452 26.6455 60.1035 26.7288 60.041C31.4163 56.4577 37.2705 54.291 43.583 54.291C50.7497 54.291 57.2705 56.9785 62.208 61.3952C64.583 63.541 66.6038 66.1035 68.1247 68.9577C68.2497 69.166 68.3747 69.3952 68.4788 69.6243C68.6663 69.9993 68.8538 70.3952 69.0205 70.8119C69.708 72.3119 70.2497 73.8952 70.6247 75.5202C70.6663 75.6868 70.708 75.8535 70.7497 76.0202C70.9163 76.791 71.0622 77.5827 71.1663 78.3743C71.333 79.6035 71.4163 80.8535 71.4163 82.1243Z" fill="#FF9800"/>
<path id="Vector_13" d="M67.1247 82.125C67.1247 82.5417 67.1038 83 67.083 83.4792C67.0413 84.25 66.9788 85.0833 66.8747 85.9375C66.833 86.4583 66.7497 86.9792 66.6663 87.5H55.2497L53.0413 87.1458L44.4163 85.7708L43.1872 85.5833L40.3747 85.125C39.1455 85.125 36.4788 85.6667 33.6663 86.1875C32.1872 86.4583 30.6872 86.75 29.333 86.9375C29.1663 86.9583 28.9997 86.9792 28.8538 87H28.833C27.3747 86.6875 25.958 86.2083 24.6247 85.5833C24.208 85.3958 23.7913 85.1875 23.3747 84.9583C22.208 84.3125 21.083 83.5417 20.0622 82.6875C20.0413 82.4375 20.0205 82.2292 20.0205 82.125C20.0205 81.5833 20.0413 81.0625 20.083 80.5417C20.1663 79.2083 20.3538 77.9167 20.6455 76.6667C21.1038 74.7708 21.7705 72.9375 22.6663 71.25C22.833 70.8958 23.0205 70.5417 23.2288 70.2083C23.3122 70.0417 23.4163 69.8958 23.4997 69.7292C23.8747 69.125 24.2913 68.5417 24.708 67.9583C25.583 66.8125 26.5622 65.7292 27.6038 64.75C27.6247 64.75 27.6247 64.75 27.6247 64.75C27.708 64.6667 27.7913 64.5833 27.8747 64.5208C27.9788 64.4375 28.0622 64.3333 28.1663 64.2708C28.583 63.8958 28.9997 63.5625 29.4372 63.25C29.4372 63.2292 29.458 63.2292 29.458 63.2292C33.3955 60.2917 38.2705 58.5625 43.583 58.5625C47.708 58.5625 51.5413 59.6042 54.8955 61.4375H54.9163C57.7913 63.0208 60.2913 65.1667 62.2705 67.75C63.0413 68.75 63.7288 69.8125 64.3122 70.9375H64.333C64.4372 71.1458 64.5413 71.3542 64.6455 71.5625C65.2705 72.7917 65.7705 74.0833 66.1455 75.4167H66.1663C66.1872 75.5208 66.2288 75.625 66.2497 75.7292C66.4997 76.625 66.708 77.5417 66.8538 78.4792C66.8747 78.6667 66.8955 78.875 66.9163 79.0625C67.0622 80.0625 67.1247 81.0833 67.1247 82.125Z" fill="#FFC107"/>
<path id="Vector_14" d="M62.8542 81.8952C62.8542 82.2285 62.8542 82.5827 62.8125 82.916V82.9369C62.8125 82.9577 62.8125 82.9577 62.8125 82.9577C62.7708 84.4577 62.5625 85.9368 62.2292 87.2702C62.2292 87.3535 62.2083 87.416 62.1667 87.4993H52.4375L44.4167 85.7702L43.3542 85.541L43.1875 85.5827L34.2917 87.416L33.8958 87.4993H33.3333C32 87.4993 30.6875 87.3743 29.4167 87.1243C29.2292 87.0827 29.0417 87.041 28.8542 86.9993H28.8333C27.375 86.6868 25.9583 86.2077 24.625 85.5827C24.5833 85.3535 24.5417 85.1243 24.5208 84.8952C24.375 83.9993 24.3125 83.0618 24.3125 82.1243C24.3125 81.7702 24.3125 81.416 24.3333 81.0618C24.3958 79.9368 24.5625 78.8327 24.8125 77.7702C24.9792 76.9785 25.2083 76.2077 25.4792 75.4785C25.7083 74.8327 25.9792 74.2077 26.2708 73.6035C26.5208 73.0827 26.8125 72.5827 27.1042 72.0827C27.3958 71.6035 27.7083 71.1452 28.0417 70.6868C28.875 69.541 29.8542 68.4785 30.9375 67.541C31.5625 66.9993 32.25 66.4785 32.9583 66.0202C36 64.0202 39.6458 62.8535 43.5833 62.8535C44.3542 62.8535 45.1042 62.8952 45.8333 62.9993H45.875C48.1042 63.2493 50.1875 63.8744 52.1042 64.8118C52.125 64.8118 52.125 64.8118 52.125 64.8118C55.1458 66.291 57.7083 68.5202 59.5833 71.2702C59.8958 71.7285 60.2083 72.2285 60.4792 72.7285C60.7083 73.1243 60.9167 73.541 61.1042 73.9577C61.3958 74.6035 61.6667 75.291 61.8958 75.9785H61.9167C62.1458 76.7494 62.3542 77.5202 62.5 78.3327V78.3535C62.7292 79.4993 62.8542 80.6869 62.8542 81.8952Z" fill="#FFD54F"/>
<path id="Vector_15" d="M58.5622 82.334V82.3965C58.5622 83.6256 58.4163 84.834 58.1247 86.0215C58.0205 86.5215 57.8747 87.0215 57.6872 87.5007H48.3538L43.583 86.1881L38.8122 87.5007H33.333C31.9997 87.5007 30.6872 87.3757 29.4163 87.1257C29.3747 87.0632 29.3538 87.0006 29.333 86.9381C29.0413 86.0423 28.8122 85.1465 28.708 84.209C28.6247 83.6048 28.583 82.9798 28.583 82.334C28.583 82.084 28.583 81.8132 28.6247 81.5632C28.6455 80.584 28.7913 79.6256 29.0413 78.709C29.1663 78.084 29.3538 77.4798 29.6038 76.8965C29.6872 76.6048 29.8122 76.334 29.958 76.0631C30.2705 75.3548 30.6455 74.6673 31.0622 74.0007C31.5205 73.334 32.0205 72.709 32.583 72.1256C33.2497 71.3756 33.9997 70.6882 34.8538 70.1257C36.3122 69.0632 37.9788 68.2715 39.7913 67.834C40.9997 67.5007 42.2705 67.334 43.583 67.334C47.7497 67.334 51.4788 69.0007 54.1872 71.6882C54.2913 71.7923 54.4163 71.9173 54.5205 72.0632H54.5413C54.833 72.3757 55.1038 72.6882 55.3747 73.0423C56.1455 74.0215 56.7913 75.084 57.2913 76.2506C57.5413 76.7923 57.7497 77.3548 57.9163 77.9382C57.9372 78.0215 57.958 78.084 57.9788 78.1673C58.2705 79.1882 58.458 80.2506 58.4997 81.3548C58.5413 81.6673 58.5622 82.0007 58.5622 82.334Z" fill="#FFE082"/>
<path id="Vector_16" d="M54.2917 82.3333C54.2917 83.1875 54.1875 84 53.9583 84.7708C53.75 85.6042 53.4375 86.3958 53.0417 87.1458C52.9792 87.2708 52.8333 87.5 52.8333 87.5H34.3333C34.3125 87.4792 34.2917 87.4375 34.2917 87.4167C34.0417 87.0208 33.8333 86.625 33.6667 86.1875C33.25 85.2292 33 84.1875 32.9167 83.1042C32.875 82.8542 32.875 82.5833 32.875 82.3333C32.875 82.2083 32.875 82.0625 32.8958 81.9375C32.9167 81.0208 33.0417 80.1458 33.2917 79.3333C33.5 78.5833 33.7708 77.8958 34.125 77.2292C34.125 77.2292 34.1458 77.2083 34.1458 77.1875C34.3958 76.75 34.6667 76.3125 34.9792 75.8958C36 74.5208 37.3542 73.3958 38.9167 72.6667C38.9375 72.6667 38.9375 72.6667 38.9375 72.6667C39.4375 72.4167 39.9583 72.2083 40.5 72.0625C40.5 72.0625 40.5 72.0625 40.5208 72.0625C41.4792 71.7708 42.5208 71.625 43.5833 71.625C44.8125 71.625 46 71.8125 47.0833 72.2083C47.4792 72.3125 47.8542 72.4792 48.2292 72.6667C48.2292 72.6667 48.2292 72.6667 48.25 72.6667C50.0417 73.5208 51.5625 74.8542 52.6042 76.5208C52.8125 76.8333 53 77.1667 53.1667 77.5208C53.25 77.6667 53.3333 77.8333 53.3958 77.9792C53.875 79.0625 54.1667 80.25 54.25 81.5C54.2708 81.6042 54.2708 81.7083 54.2708 81.8333C54.2917 82 54.2917 82.1667 54.2917 82.3333Z" fill="#FFECB3"/>
<g id="Group">
<path id="Vector_17" d="M62.5003 22.916H37.5003C29.3753 22.916 22.917 29.3743 22.917 37.4993V62.4993C22.917 70.6243 29.3753 77.0827 37.5003 77.0827H62.5003C70.6253 77.0827 77.0837 70.6243 77.0837 62.4993V37.4993C77.0837 29.3743 70.6253 22.916 62.5003 22.916Z" stroke="white" stroke-width="4.16667" stroke-miterlimit="10" stroke-linecap="round" stroke-linejoin="round"/>
<path id="Vector_18" d="M64.5833 35.4167C65.7339 35.4167 66.6667 34.4839 66.6667 33.3333C66.6667 32.1827 65.7339 31.25 64.5833 31.25C63.4327 31.25 62.5 32.1827 62.5 33.3333C62.5 34.4839 63.4327 35.4167 64.5833 35.4167Z" fill="white"/>
</g>
<g id="Group_2">
<path id="Vector_19" d="M50 62.5C56.9036 62.5 62.5 56.9036 62.5 50C62.5 43.0964 56.9036 37.5 50 37.5C43.0964 37.5 37.5 43.0964 37.5 50C37.5 56.9036 43.0964 62.5 50 62.5Z" stroke="white" stroke-width="4.16667" stroke-miterlimit="10" stroke-linecap="round" stroke-linejoin="round"/>
</g>
</g>
</svg>
