<svg width="100" height="100" viewBox="0 0 100 100" fill="none" xmlns="http://www.w3.org/2000/svg">
<g id="YouTube">
<path id="Vector" d="M93.7753 71.9993C92.8607 76.666 88.9753 80.2223 84.1753 80.8889C76.6316 81.9993 64.0587 83.3327 49.8857 83.3327C35.942 83.3327 23.3691 81.9993 15.5962 80.8889C10.7962 80.2223 6.90866 76.666 5.99616 71.9993C5.08158 66.8889 4.16699 59.3327 4.16699 49.9993C4.16699 40.666 5.08158 33.1098 5.99616 27.9993C6.91074 23.3327 10.7962 19.7764 15.5962 19.1098C23.1399 17.9993 35.7128 16.666 49.8857 16.666C64.0587 16.666 76.4024 17.9993 84.1753 19.1098C88.9753 19.7764 92.8628 23.3327 93.7753 27.9993C94.6899 33.1098 95.8337 40.666 95.8337 49.9993C95.6045 59.3327 94.6899 66.8889 93.7753 71.9993Z" fill="url(#paint0_linear_127_486)"/>
<path id="Vector_2" opacity="0.05" d="M67.4 46.7508L43.575 30.8674C42.3729 30.0654 40.8375 29.9904 39.5646 30.6737C38.2917 31.3549 37.5 32.6737 37.5 34.1174V65.8841C37.5 67.3279 38.2917 68.6487 39.5646 69.3299C40.1437 69.6404 40.775 69.7924 41.4062 69.7924C42.1646 69.7924 42.9188 69.5716 43.5729 69.1362L67.3979 53.2529C68.4875 52.5258 69.1375 51.3112 69.1375 50.0029C69.1396 48.6924 68.4875 47.4779 67.4 46.7508Z" fill="black"/>
<path id="Vector_3" opacity="0.07" d="M43.0857 31.7445L65.5649 46.732C67.0003 47.7633 67.967 48.6862 67.967 49.8841C67.967 51.082 67.5003 51.9174 66.4774 52.6633C65.7045 53.2258 43.467 68.0049 43.467 68.0049C41.5899 69.2633 38.542 68.9966 38.542 64.882V34.8841C38.542 30.707 41.842 30.9153 43.0857 31.7445Z" fill="black"/>
<path id="Vector_4" d="M39.583 65.7662V34.235C39.583 32.6871 41.308 31.7621 42.5976 32.6225L66.2476 48.3892C67.3997 49.1558 67.3997 50.8475 66.2476 51.6162L42.5976 67.3829C41.308 68.2392 39.583 67.3162 39.583 65.7662Z" fill="white"/>
</g>
<defs>
<linearGradient id="paint0_linear_127_486" x1="20.4503" y1="20.5639" x2="85.9295" y2="86.0431" gradientUnits="userSpaceOnUse">
<stop stop-color="#F44F5A"/>
<stop offset="0.443" stop-color="#EE3D4A"/>
<stop offset="1" stop-color="#E52030"/>
</linearGradient>
</defs>
</svg>
